<mxfile host="app.diagrams.net" modified="2024-06-03T23:54:21.385Z" agent="Mozilla/5.0 (Windows NT 10.0; Win64; x64) AppleWebKit/537.36 (KHTML, like Gecko) Chrome/123.0.0.0 Safari/537.36 OPR/109.0.0.0" etag="TayippphVVDJ7NgeAbrH" version="24.3.1" type="github">
  <diagram id="C5RBs43oDa-KdzZeNtuy" name="Page-1">
    <mxGraphModel dx="2350" dy="1972" grid="1" gridSize="10" guides="1" tooltips="1" connect="1" arrows="1" fold="1" page="1" pageScale="1" pageWidth="827" pageHeight="1169" math="0" shadow="0">
      <root>
        <mxCell id="WIyWlLk6GJQsqaUBKTNV-0" />
        <mxCell id="WIyWlLk6GJQsqaUBKTNV-1" parent="WIyWlLk6GJQsqaUBKTNV-0" />
        <mxCell id="Qz4DSYTSkl4mfM7tazpU-0" value="Musica" style="swimlane;fontStyle=1;align=center;verticalAlign=top;childLayout=stackLayout;horizontal=1;startSize=26;horizontalStack=0;resizeParent=1;resizeParentMax=0;resizeLast=0;collapsible=1;marginBottom=0;whiteSpace=wrap;html=1;" vertex="1" parent="WIyWlLk6GJQsqaUBKTNV-1">
          <mxGeometry y="-10" width="140" height="210" as="geometry" />
        </mxCell>
        <mxCell id="Qz4DSYTSkl4mfM7tazpU-1" value="+ id: int&lt;br&gt;+ nome: string&lt;br&gt;+ artista: Artista&lt;br&gt;+ genero: string&lt;br&gt;+ letra: string&lt;div&gt;+ duracao: float&lt;br&gt;+ views: long&lt;br&gt;+ album: Album&lt;/div&gt;" style="text;strokeColor=none;fillColor=none;align=left;verticalAlign=top;spacingLeft=4;spacingRight=4;overflow=hidden;rotatable=0;points=[[0,0.5],[1,0.5]];portConstraint=eastwest;whiteSpace=wrap;html=1;" vertex="1" parent="Qz4DSYTSkl4mfM7tazpU-0">
          <mxGeometry y="26" width="140" height="134" as="geometry" />
        </mxCell>
        <mxCell id="Qz4DSYTSkl4mfM7tazpU-2" value="" style="line;strokeWidth=1;fillColor=none;align=left;verticalAlign=middle;spacingTop=-1;spacingLeft=3;spacingRight=3;rotatable=0;labelPosition=right;points=[];portConstraint=eastwest;strokeColor=inherit;" vertex="1" parent="Qz4DSYTSkl4mfM7tazpU-0">
          <mxGeometry y="160" width="140" height="8" as="geometry" />
        </mxCell>
        <mxCell id="Qz4DSYTSkl4mfM7tazpU-3" value="&lt;div&gt;+ play()&lt;/div&gt;" style="text;strokeColor=none;fillColor=none;align=left;verticalAlign=top;spacingLeft=4;spacingRight=4;overflow=hidden;rotatable=0;points=[[0,0.5],[1,0.5]];portConstraint=eastwest;whiteSpace=wrap;html=1;" vertex="1" parent="Qz4DSYTSkl4mfM7tazpU-0">
          <mxGeometry y="168" width="140" height="42" as="geometry" />
        </mxCell>
        <mxCell id="Qz4DSYTSkl4mfM7tazpU-4" value="Artista" style="swimlane;fontStyle=1;align=center;verticalAlign=top;childLayout=stackLayout;horizontal=1;startSize=26;horizontalStack=0;resizeParent=1;resizeParentMax=0;resizeLast=0;collapsible=1;marginBottom=0;whiteSpace=wrap;html=1;" vertex="1" parent="WIyWlLk6GJQsqaUBKTNV-1">
          <mxGeometry x="-20" y="355" width="490" height="290" as="geometry" />
        </mxCell>
        <mxCell id="Qz4DSYTSkl4mfM7tazpU-5" value="+ albuns: Album[ ]&lt;div&gt;+ musicas: Musica[ ]&amp;nbsp;&lt;/div&gt;&lt;div&gt;+ views: long&lt;br&gt;+ seguidores: Usuario[ ]&amp;nbsp;&lt;/div&gt;" style="text;strokeColor=none;fillColor=none;align=left;verticalAlign=top;spacingLeft=4;spacingRight=4;overflow=hidden;rotatable=0;points=[[0,0.5],[1,0.5]];portConstraint=eastwest;whiteSpace=wrap;html=1;" vertex="1" parent="Qz4DSYTSkl4mfM7tazpU-4">
          <mxGeometry y="26" width="490" height="114" as="geometry" />
        </mxCell>
        <mxCell id="Qz4DSYTSkl4mfM7tazpU-6" value="" style="line;strokeWidth=1;fillColor=none;align=left;verticalAlign=middle;spacingTop=-1;spacingLeft=3;spacingRight=3;rotatable=0;labelPosition=right;points=[];portConstraint=eastwest;strokeColor=inherit;" vertex="1" parent="Qz4DSYTSkl4mfM7tazpU-4">
          <mxGeometry y="140" width="490" height="8" as="geometry" />
        </mxCell>
        <mxCell id="Qz4DSYTSkl4mfM7tazpU-7" value="+ contarSeguidores(): long&lt;br&gt;+ play()&lt;br&gt;+ publicarMusica(string nome, string genero, string letra, float duracao)&lt;div&gt;+ publicarMusica(string nome, string genero, string letra, float duracao, Album album)&lt;br&gt;+ excluirMusica(Musica musica)&lt;br&gt;+ publicarAlbum(string nome)&lt;br&gt;+ adicionarMusicaAoAlbum(Musica musica)&lt;br&gt;+ excluirAlbum(Album album)&lt;/div&gt;" style="text;strokeColor=none;fillColor=none;align=left;verticalAlign=top;spacingLeft=4;spacingRight=4;overflow=hidden;rotatable=0;points=[[0,0.5],[1,0.5]];portConstraint=eastwest;whiteSpace=wrap;html=1;" vertex="1" parent="Qz4DSYTSkl4mfM7tazpU-4">
          <mxGeometry y="148" width="490" height="142" as="geometry" />
        </mxCell>
        <mxCell id="Qz4DSYTSkl4mfM7tazpU-8" value="Usuario" style="swimlane;fontStyle=1;align=center;verticalAlign=top;childLayout=stackLayout;horizontal=1;startSize=26;horizontalStack=0;resizeParent=1;resizeParentMax=0;resizeLast=0;collapsible=1;marginBottom=0;whiteSpace=wrap;html=1;" vertex="1" parent="WIyWlLk6GJQsqaUBKTNV-1">
          <mxGeometry x="-230" y="740" width="290" height="310" as="geometry" />
        </mxCell>
        <mxCell id="Qz4DSYTSkl4mfM7tazpU-9" value="+ id: int&lt;br&gt;+ nome: string&lt;br&gt;+ email: string&lt;br&gt;+ senha: string" style="text;strokeColor=none;fillColor=none;align=left;verticalAlign=top;spacingLeft=4;spacingRight=4;overflow=hidden;rotatable=0;points=[[0,0.5],[1,0.5]];portConstraint=eastwest;whiteSpace=wrap;html=1;" vertex="1" parent="Qz4DSYTSkl4mfM7tazpU-8">
          <mxGeometry y="26" width="290" height="124" as="geometry" />
        </mxCell>
        <mxCell id="Qz4DSYTSkl4mfM7tazpU-10" value="" style="line;strokeWidth=1;fillColor=none;align=left;verticalAlign=middle;spacingTop=-1;spacingLeft=3;spacingRight=3;rotatable=0;labelPosition=right;points=[];portConstraint=eastwest;strokeColor=inherit;" vertex="1" parent="Qz4DSYTSkl4mfM7tazpU-8">
          <mxGeometry y="150" width="290" height="8" as="geometry" />
        </mxCell>
        <mxCell id="Qz4DSYTSkl4mfM7tazpU-11" value="+ follow(Artista artista): string&lt;br&gt;+ logout()" style="text;strokeColor=none;fillColor=none;align=left;verticalAlign=top;spacingLeft=4;spacingRight=4;overflow=hidden;rotatable=0;points=[[0,0.5],[1,0.5]];portConstraint=eastwest;whiteSpace=wrap;html=1;" vertex="1" parent="Qz4DSYTSkl4mfM7tazpU-8">
          <mxGeometry y="158" width="290" height="152" as="geometry" />
        </mxCell>
        <mxCell id="Qz4DSYTSkl4mfM7tazpU-12" value="Sistema" style="swimlane;fontStyle=1;align=center;verticalAlign=top;childLayout=stackLayout;horizontal=1;startSize=26;horizontalStack=0;resizeParent=1;resizeParentMax=0;resizeLast=0;collapsible=1;marginBottom=0;whiteSpace=wrap;html=1;" vertex="1" parent="WIyWlLk6GJQsqaUBKTNV-1">
          <mxGeometry x="-580" y="810" width="220" height="198" as="geometry" />
        </mxCell>
        <mxCell id="Qz4DSYTSkl4mfM7tazpU-13" value="+ usuarios: Usuario[ ]&amp;nbsp;&lt;br&gt;+ quantidade_usuarios: long" style="text;strokeColor=none;fillColor=none;align=left;verticalAlign=top;spacingLeft=4;spacingRight=4;overflow=hidden;rotatable=0;points=[[0,0.5],[1,0.5]];portConstraint=eastwest;whiteSpace=wrap;html=1;" vertex="1" parent="Qz4DSYTSkl4mfM7tazpU-12">
          <mxGeometry y="26" width="220" height="44" as="geometry" />
        </mxCell>
        <mxCell id="Qz4DSYTSkl4mfM7tazpU-14" value="" style="line;strokeWidth=1;fillColor=none;align=left;verticalAlign=middle;spacingTop=-1;spacingLeft=3;spacingRight=3;rotatable=0;labelPosition=right;points=[];portConstraint=eastwest;strokeColor=inherit;" vertex="1" parent="Qz4DSYTSkl4mfM7tazpU-12">
          <mxGeometry y="70" width="220" height="8" as="geometry" />
        </mxCell>
        <mxCell id="Qz4DSYTSkl4mfM7tazpU-15" value="+ criaUsuario(string nome)&lt;br&gt;+ login(string email, string senha)" style="text;strokeColor=none;fillColor=none;align=left;verticalAlign=top;spacingLeft=4;spacingRight=4;overflow=hidden;rotatable=0;points=[[0,0.5],[1,0.5]];portConstraint=eastwest;whiteSpace=wrap;html=1;" vertex="1" parent="Qz4DSYTSkl4mfM7tazpU-12">
          <mxGeometry y="78" width="220" height="120" as="geometry" />
        </mxCell>
        <mxCell id="Qz4DSYTSkl4mfM7tazpU-16" value="Album" style="swimlane;fontStyle=1;align=center;verticalAlign=top;childLayout=stackLayout;horizontal=1;startSize=26;horizontalStack=0;resizeParent=1;resizeParentMax=0;resizeLast=0;collapsible=1;marginBottom=0;whiteSpace=wrap;html=1;" vertex="1" parent="WIyWlLk6GJQsqaUBKTNV-1">
          <mxGeometry x="600" y="360" width="160" height="164" as="geometry" />
        </mxCell>
        <mxCell id="Qz4DSYTSkl4mfM7tazpU-17" value="+ id: int&lt;br&gt;+ nome: string&lt;br&gt;+ artista: Artista&lt;br&gt;+ musicas: Musica&lt;br&gt;+ views: long&lt;br&gt;+ duracao: float" style="text;strokeColor=none;fillColor=none;align=left;verticalAlign=top;spacingLeft=4;spacingRight=4;overflow=hidden;rotatable=0;points=[[0,0.5],[1,0.5]];portConstraint=eastwest;whiteSpace=wrap;html=1;" vertex="1" parent="Qz4DSYTSkl4mfM7tazpU-16">
          <mxGeometry y="26" width="160" height="104" as="geometry" />
        </mxCell>
        <mxCell id="Qz4DSYTSkl4mfM7tazpU-18" value="" style="line;strokeWidth=1;fillColor=none;align=left;verticalAlign=middle;spacingTop=-1;spacingLeft=3;spacingRight=3;rotatable=0;labelPosition=right;points=[];portConstraint=eastwest;strokeColor=inherit;" vertex="1" parent="Qz4DSYTSkl4mfM7tazpU-16">
          <mxGeometry y="130" width="160" height="8" as="geometry" />
        </mxCell>
        <mxCell id="Qz4DSYTSkl4mfM7tazpU-19" value="+ play()" style="text;strokeColor=none;fillColor=none;align=left;verticalAlign=top;spacingLeft=4;spacingRight=4;overflow=hidden;rotatable=0;points=[[0,0.5],[1,0.5]];portConstraint=eastwest;whiteSpace=wrap;html=1;" vertex="1" parent="Qz4DSYTSkl4mfM7tazpU-16">
          <mxGeometry y="138" width="160" height="26" as="geometry" />
        </mxCell>
        <mxCell id="Qz4DSYTSkl4mfM7tazpU-24" value="Playlist" style="swimlane;fontStyle=1;align=center;verticalAlign=top;childLayout=stackLayout;horizontal=1;startSize=26;horizontalStack=0;resizeParent=1;resizeParentMax=0;resizeLast=0;collapsible=1;marginBottom=0;whiteSpace=wrap;html=1;" vertex="1" parent="WIyWlLk6GJQsqaUBKTNV-1">
          <mxGeometry x="-690" y="390" width="160" height="230" as="geometry" />
        </mxCell>
        <mxCell id="Qz4DSYTSkl4mfM7tazpU-25" value="+ id: int&lt;div&gt;+ nome: string&lt;br&gt;+ musicas: Musica [ ]&lt;/div&gt;&lt;div&gt;+ criador: Usuario&lt;/div&gt;" style="text;strokeColor=none;fillColor=none;align=left;verticalAlign=top;spacingLeft=4;spacingRight=4;overflow=hidden;rotatable=0;points=[[0,0.5],[1,0.5]];portConstraint=eastwest;whiteSpace=wrap;html=1;" vertex="1" parent="Qz4DSYTSkl4mfM7tazpU-24">
          <mxGeometry y="26" width="160" height="94" as="geometry" />
        </mxCell>
        <mxCell id="Qz4DSYTSkl4mfM7tazpU-26" value="" style="line;strokeWidth=1;fillColor=none;align=left;verticalAlign=middle;spacingTop=-1;spacingLeft=3;spacingRight=3;rotatable=0;labelPosition=right;points=[];portConstraint=eastwest;strokeColor=inherit;" vertex="1" parent="Qz4DSYTSkl4mfM7tazpU-24">
          <mxGeometry y="120" width="160" height="8" as="geometry" />
        </mxCell>
        <mxCell id="Qz4DSYTSkl4mfM7tazpU-27" value="+ adicionarMusica()&lt;div&gt;+ removerMusica()&lt;br&gt;+ play()&lt;/div&gt;" style="text;strokeColor=none;fillColor=none;align=left;verticalAlign=top;spacingLeft=4;spacingRight=4;overflow=hidden;rotatable=0;points=[[0,0.5],[1,0.5]];portConstraint=eastwest;whiteSpace=wrap;html=1;" vertex="1" parent="Qz4DSYTSkl4mfM7tazpU-24">
          <mxGeometry y="128" width="160" height="102" as="geometry" />
        </mxCell>
        <mxCell id="Qz4DSYTSkl4mfM7tazpU-31" value="Ouvinte" style="swimlane;fontStyle=1;align=center;verticalAlign=top;childLayout=stackLayout;horizontal=1;startSize=26;horizontalStack=0;resizeParent=1;resizeParentMax=0;resizeLast=0;collapsible=1;marginBottom=0;whiteSpace=wrap;html=1;" vertex="1" parent="WIyWlLk6GJQsqaUBKTNV-1">
          <mxGeometry x="-440" y="370" width="260" height="260" as="geometry" />
        </mxCell>
        <mxCell id="Qz4DSYTSkl4mfM7tazpU-32" value="+ playlists: Playlist [ ]&amp;nbsp;" style="text;strokeColor=none;fillColor=none;align=left;verticalAlign=top;spacingLeft=4;spacingRight=4;overflow=hidden;rotatable=0;points=[[0,0.5],[1,0.5]];portConstraint=eastwest;whiteSpace=wrap;html=1;" vertex="1" parent="Qz4DSYTSkl4mfM7tazpU-31">
          <mxGeometry y="26" width="260" height="26" as="geometry" />
        </mxCell>
        <mxCell id="Qz4DSYTSkl4mfM7tazpU-33" value="" style="line;strokeWidth=1;fillColor=none;align=left;verticalAlign=middle;spacingTop=-1;spacingLeft=3;spacingRight=3;rotatable=0;labelPosition=right;points=[];portConstraint=eastwest;strokeColor=inherit;" vertex="1" parent="Qz4DSYTSkl4mfM7tazpU-31">
          <mxGeometry y="52" width="260" height="8" as="geometry" />
        </mxCell>
        <mxCell id="Qz4DSYTSkl4mfM7tazpU-34" value="+ criaPlaylist(string nome)&lt;br&gt;+ excluirPlaylist(Playlist playlist)&lt;br&gt;+ adicionarNaPlaylist(Musica musica)&lt;br&gt;+ adicionarNaPlaylist(Album album)&lt;br&gt;+ removerDaPlaylist(Musica musica, Playlist p)&lt;br&gt;+ removerDaPlaylist(Album, album, Playlist p)&lt;br&gt;+ follow(Artista artista): string" style="text;strokeColor=none;fillColor=none;align=left;verticalAlign=top;spacingLeft=4;spacingRight=4;overflow=hidden;rotatable=0;points=[[0,0.5],[1,0.5]];portConstraint=eastwest;whiteSpace=wrap;html=1;" vertex="1" parent="Qz4DSYTSkl4mfM7tazpU-31">
          <mxGeometry y="60" width="260" height="200" as="geometry" />
        </mxCell>
        <mxCell id="Qz4DSYTSkl4mfM7tazpU-36" value="" style="endArrow=block;endSize=16;endFill=0;html=1;rounded=0;exitX=0.36;exitY=1.013;exitDx=0;exitDy=0;exitPerimeter=0;entryX=0;entryY=0;entryDx=0;entryDy=0;" edge="1" parent="WIyWlLk6GJQsqaUBKTNV-1" source="Qz4DSYTSkl4mfM7tazpU-34" target="Qz4DSYTSkl4mfM7tazpU-8">
          <mxGeometry width="160" relative="1" as="geometry">
            <mxPoint x="50" y="780" as="sourcePoint" />
            <mxPoint x="210" y="780" as="targetPoint" />
          </mxGeometry>
        </mxCell>
        <mxCell id="Qz4DSYTSkl4mfM7tazpU-37" value="" style="endArrow=block;endSize=16;endFill=0;html=1;rounded=0;exitX=0.493;exitY=0.992;exitDx=0;exitDy=0;exitPerimeter=0;entryX=0.5;entryY=0;entryDx=0;entryDy=0;" edge="1" parent="WIyWlLk6GJQsqaUBKTNV-1" source="Qz4DSYTSkl4mfM7tazpU-7" target="Qz4DSYTSkl4mfM7tazpU-8">
          <mxGeometry width="160" relative="1" as="geometry">
            <mxPoint x="50" y="780" as="sourcePoint" />
            <mxPoint x="-85" y="690" as="targetPoint" />
            <Array as="points">
              <mxPoint x="220" y="690" />
              <mxPoint x="-90" y="690" />
            </Array>
          </mxGeometry>
        </mxCell>
        <mxCell id="Qz4DSYTSkl4mfM7tazpU-38" value="" style="endArrow=diamondThin;endFill=0;endSize=24;html=1;rounded=0;entryX=1.002;entryY=0.607;entryDx=0;entryDy=0;entryPerimeter=0;exitX=0;exitY=0.625;exitDx=0;exitDy=0;exitPerimeter=0;" edge="1" parent="WIyWlLk6GJQsqaUBKTNV-1" source="Qz4DSYTSkl4mfM7tazpU-17" target="Qz4DSYTSkl4mfM7tazpU-5">
          <mxGeometry width="160" relative="1" as="geometry">
            <mxPoint x="510" y="680" as="sourcePoint" />
            <mxPoint x="550" y="540" as="targetPoint" />
            <Array as="points" />
          </mxGeometry>
        </mxCell>
        <mxCell id="Qz4DSYTSkl4mfM7tazpU-39" value="" style="endArrow=diamondThin;endFill=0;endSize=24;html=1;rounded=0;exitX=0.894;exitY=1.051;exitDx=0;exitDy=0;exitPerimeter=0;entryX=0.299;entryY=-0.003;entryDx=0;entryDy=0;entryPerimeter=0;" edge="1" parent="WIyWlLk6GJQsqaUBKTNV-1" source="Qz4DSYTSkl4mfM7tazpU-3" target="Qz4DSYTSkl4mfM7tazpU-4">
          <mxGeometry width="160" relative="1" as="geometry">
            <mxPoint x="580" y="560" as="sourcePoint" />
            <mxPoint x="125" y="350" as="targetPoint" />
            <Array as="points" />
          </mxGeometry>
        </mxCell>
        <mxCell id="Qz4DSYTSkl4mfM7tazpU-40" value="N" style="text;html=1;align=center;verticalAlign=middle;resizable=0;points=[];autosize=1;strokeColor=none;fillColor=none;" vertex="1" parent="WIyWlLk6GJQsqaUBKTNV-1">
          <mxGeometry x="575" y="428" width="30" height="30" as="geometry" />
        </mxCell>
        <mxCell id="Qz4DSYTSkl4mfM7tazpU-41" value="N" style="text;html=1;align=center;verticalAlign=middle;resizable=0;points=[];autosize=1;strokeColor=none;fillColor=none;" vertex="1" parent="WIyWlLk6GJQsqaUBKTNV-1">
          <mxGeometry x="-30" y="50" width="30" height="30" as="geometry" />
        </mxCell>
        <mxCell id="Qz4DSYTSkl4mfM7tazpU-42" value="" style="endArrow=diamondThin;endFill=0;endSize=24;html=1;rounded=0;entryX=-0.012;entryY=0.245;entryDx=0;entryDy=0;entryPerimeter=0;exitX=0.993;exitY=0.67;exitDx=0;exitDy=0;exitPerimeter=0;" edge="1" parent="WIyWlLk6GJQsqaUBKTNV-1" source="Qz4DSYTSkl4mfM7tazpU-25" target="Qz4DSYTSkl4mfM7tazpU-34">
          <mxGeometry width="160" relative="1" as="geometry">
            <mxPoint x="-320" y="320" as="sourcePoint" />
            <mxPoint x="-160" y="320" as="targetPoint" />
          </mxGeometry>
        </mxCell>
        <mxCell id="Qz4DSYTSkl4mfM7tazpU-43" value="N" style="text;html=1;align=center;verticalAlign=middle;resizable=0;points=[];autosize=1;strokeColor=none;fillColor=none;" vertex="1" parent="WIyWlLk6GJQsqaUBKTNV-1">
          <mxGeometry x="-540" y="458" width="30" height="30" as="geometry" />
        </mxCell>
        <mxCell id="Qz4DSYTSkl4mfM7tazpU-45" value="" style="endArrow=diamondThin;endFill=0;endSize=24;html=1;rounded=0;entryX=0.75;entryY=0;entryDx=0;entryDy=0;exitX=0;exitY=0.5;exitDx=0;exitDy=0;" edge="1" parent="WIyWlLk6GJQsqaUBKTNV-1" source="Qz4DSYTSkl4mfM7tazpU-1" target="Qz4DSYTSkl4mfM7tazpU-24">
          <mxGeometry width="160" relative="1" as="geometry">
            <mxPoint x="-570" y="160" as="sourcePoint" />
            <mxPoint x="-390" y="160" as="targetPoint" />
            <Array as="points">
              <mxPoint x="-570" y="83" />
            </Array>
          </mxGeometry>
        </mxCell>
        <mxCell id="Qz4DSYTSkl4mfM7tazpU-47" value="N" style="text;html=1;align=center;verticalAlign=middle;resizable=0;points=[];autosize=1;strokeColor=none;fillColor=none;" vertex="1" parent="WIyWlLk6GJQsqaUBKTNV-1">
          <mxGeometry x="100" y="210" width="30" height="30" as="geometry" />
        </mxCell>
        <mxCell id="Qz4DSYTSkl4mfM7tazpU-48" value="" style="endArrow=diamondThin;endFill=0;endSize=24;html=1;rounded=0;entryX=1;entryY=0.017;entryDx=0;entryDy=0;entryPerimeter=0;exitX=-0.018;exitY=0.996;exitDx=0;exitDy=0;exitPerimeter=0;" edge="1" parent="WIyWlLk6GJQsqaUBKTNV-1" source="Qz4DSYTSkl4mfM7tazpU-9" target="Qz4DSYTSkl4mfM7tazpU-15">
          <mxGeometry width="160" relative="1" as="geometry">
            <mxPoint x="-140" y="610" as="sourcePoint" />
            <mxPoint x="20" y="610" as="targetPoint" />
          </mxGeometry>
        </mxCell>
        <mxCell id="Qz4DSYTSkl4mfM7tazpU-49" value="N" style="text;html=1;align=center;verticalAlign=middle;resizable=0;points=[];autosize=1;strokeColor=none;fillColor=none;" vertex="1" parent="WIyWlLk6GJQsqaUBKTNV-1">
          <mxGeometry x="-260" y="868" width="30" height="30" as="geometry" />
        </mxCell>
      </root>
    </mxGraphModel>
  </diagram>
</mxfile>
